<svg xmlns="http://www.w3.org/2000/svg" viewBox="0 0 128 128">
  <defs>
    <linearGradient id="g" x1="0" y1="0" x2="1" y2="1">
      <stop offset="0" stop-color="#86efac"/>
      <stop offset="0.5" stop-color="#4ade80"/>
      <stop offset="1" stop-color="#22c55e"/>
    </linearGradient>
    <filter id="s" x="-20%" y="-20%" width="140%" height="140%">
      <feDropShadow dx="0" dy="6" stdDeviation="4" flood-color="#000" flood-opacity="0.45"/>
    </filter>
  </defs>

  <!-- blobby shape (matches navbar feel) -->
  <path filter="url(#s)" fill="url(#g)" d="M64 10
    C86 10 108 22 114 44
    C120 66 112 92 92 106
    C72 120 46 122 30 106
    C14 90 6 66 14 44
    C22 22 42 10 64 10Z"/>

  <!-- subtle inner highlight -->
  <path fill="#ffffff" opacity="0.10" d="M64 18
    C83 18 101 28 106 46
    C110 60 107 76 96 88
    C83 102 59 104 41 94
    C27 86 20 70 22 54
    C24 34 42 18 64 18Z"/>

  <!-- $ mark -->
  <text x="64" y="76" text-anchor="middle" font-family="Rubik, system-ui, sans-serif" font-size="56" font-weight="900" fill="rgba(10,10,10,0.22)">
    $
  </text>
</svg>


